<?xml version="1.0" standalone="no"?>
<!DOCTYPE svg PUBLIC "-//W3C//DTD SVG 20010904//EN"
 "http://www.w3.org/TR/2001/REC-SVG-20010904/DTD/svg10.dtd">
<svg version="1.0" xmlns="http://www.w3.org/2000/svg"
 width="500.000000pt" height="500.000000pt" viewBox="0 0 500.000000 500.000000"
 preserveAspectRatio="xMidYMid meet">

<g transform="translate(0.000000,500.000000) scale(0.100000,-0.100000)"
fill="#000000" stroke="none">
<path d="M3895 3382 c-87 -92 -204 -214 -260 -272 -56 -58 -213 -222 -350
-365 -409 -428 -504 -521 -556 -549 -142 -78 -330 -79 -459 -3 l-35 20 25 -28
c14 -15 49 -51 78 -80 48 -48 58 -53 111 -59 64 -7 164 5 231 29 96 34 155 78
293 219 l138 141 117 -121 c64 -67 213 -222 331 -345 118 -123 279 -290 358
-370 79 -80 143 -151 143 -157 0 -9 -369 -12 -1559 -12 l-1558 0 709 -709
c657 -657 712 -710 750 -716 59 -10 312 4 460 25 804 117 1517 636 1871 1362
90 184 134 300 182 479 51 193 76 381 78 586 l2 173 -460 460 c-253 253 -464
460 -470 459 -5 -1 -82 -76 -170 -167z m245 -884 l-1 -973 -177 180 c-97 100
-311 319 -476 489 l-299 308 134 136 c74 75 287 293 473 485 186 191 340 347
342 347 2 0 4 -438 4 -972z"/>
<path d="M1808 2500 c-2 -4 -214 -224 -471 -488 l-468 -481 17 -26 c9 -14 26
-31 37 -36 23 -13 -5 -40 397 381 145 151 309 322 364 380 56 58 122 128 148
155 l47 50 -34 37 c-19 20 -35 33 -37 28z"/>
</g>
</svg>
